Coordinates
version=1
nRows=43
nColumns=12
inDegrees=yes

Units are S.I. units (second, meters, Newtons, ...)
Angles are in degrees

endheader
time	SC_y	SC_z	SC_x	AC_y	AC_z	AC_x	GH_y	GH_z	GH_yy	EL_x	PS_y
       0.0              -56.79           33.1           1.56          31.54         -4.599          -17.3         -92.56          21.82          153.9          48.48          17.54
   0.01631              -56.79           33.1          1.563          31.54           -4.6          -17.3         -92.56          21.82          153.9          48.49          17.55
   0.03261              -56.78          33.09          1.567          31.54         -4.601          -17.3         -92.55          21.82          153.9          48.49          17.55
   0.04892              -56.77          33.08           1.57          31.54         -4.603         -17.29         -92.55          21.83          153.9          48.49          17.56
   0.06522              -56.76          33.08          1.574          31.54         -4.604         -17.29         -92.55          21.83          153.8          48.49          17.57
   0.08153              -56.75          33.07          1.578          31.54         -4.605         -17.29         -92.54          21.83          153.8          48.49          17.58
   0.09783              -56.75          33.06          1.582          31.54         -4.607         -17.29         -92.54          21.83          153.8          48.49          17.59
    0.1141              -56.74          33.06          1.587          31.54         -4.608         -17.29         -92.54          21.84          153.8           48.5           17.6
    0.1304              -56.73          33.05          1.592          31.54          -4.61         -17.29         -92.53          21.84          153.8           48.5          17.61
    0.1467              -56.71          33.04          1.597          31.54         -4.611         -17.29         -92.53          21.85          153.7           48.5          17.62
    0.1631               -56.7          33.03          1.603          31.54         -4.613         -17.29         -92.52          21.85          153.7           48.5          17.63
    0.1794              -56.69          33.02          1.609          31.54         -4.615         -17.28         -92.52          21.85          153.7           48.5          17.64
    0.1957              -56.68          33.01          1.616          31.54         -4.617         -17.28         -92.51          21.86          153.7          48.51          17.66
     0.212              -56.66          32.99          1.623          31.54          -4.62         -17.28         -92.51          21.86          153.6          48.51          17.67
    0.2283              -56.64          32.98          1.631          31.54         -4.622         -17.28          -92.5          21.87          153.6          48.51          17.69
    0.2446              -56.63          32.97          1.639          31.54         -4.625         -17.28         -92.49          21.88          153.6          48.52           17.7
    0.2609              -56.61          32.95          1.648          31.54         -4.628         -17.27         -92.49          21.88          153.5          48.52          17.72
    0.2772              -56.59          32.93          1.658          31.54         -4.631         -17.27         -92.48          21.89          153.5          48.52          17.74
    0.2935              -56.56          32.92          1.669          31.54         -4.635         -17.27         -92.47           21.9          153.4          48.53          17.77
    0.3098              -56.54          32.89          1.681          31.54         -4.639         -17.27         -92.46          21.91          153.4          48.53          17.79
    0.3261              -56.51          32.87          1.694          31.54         -4.643         -17.26         -92.45          21.92          153.3          48.54          17.82
    0.3424              -56.48          32.85          1.708          31.54         -4.648         -17.26         -92.44          21.93          153.3          48.54          17.85
    0.3587              -56.45          32.82          1.724          31.54         -4.653         -17.26         -92.43          21.94          153.2          48.55          17.88
     0.375              -56.41          32.79          1.741          31.55         -4.658         -17.25         -92.41          21.95          153.2          48.56          17.92
    0.3913              -56.37          32.76          1.761          31.55         -4.665         -17.25          -92.4          21.97          153.1          48.56          17.96
    0.4076              -56.32          32.72          1.783          31.55         -4.672         -17.24         -92.38          21.98          153.0          48.57          18.01
    0.4239              -56.27          32.68          1.807          31.55          -4.68         -17.23         -92.36           22.0          152.9          48.58          18.06
    0.4402              -56.21          32.63          1.835          31.55         -4.689         -17.23         -92.34          22.02          152.8          48.59          18.11
    0.4565              -56.15          32.58          1.866          31.55         -4.699         -17.22         -92.31          22.04          152.6           48.6          18.18
    0.4728              -56.07          32.52          1.901          31.55          -4.71         -17.21         -92.28          22.07          152.5          48.62          18.25
    0.4892              -55.99          32.45          1.941          31.55         -4.724          -17.2         -92.25           22.1          152.3          48.63          18.34
    0.5055              -55.89          32.37          1.987          31.55         -4.739         -17.19         -92.21          22.13          152.2          48.65          18.43
    0.5218              -55.78          32.28           2.04          31.56         -4.756         -17.18         -92.17          22.17          151.9          48.67          18.55
    0.5381              -55.65          32.17          2.102          31.56         -4.776         -17.16         -92.12          22.22          151.7           48.7          18.68
    0.5544               -55.5          32.05          2.174          31.56           -4.8         -17.14         -92.06          22.27          151.4          48.72          18.83
    0.5707              -55.32           31.9           2.26          31.56         -4.828         -17.12         -91.99          22.33          151.0          48.76          19.01
     0.587               -55.1          31.73          2.361          31.57         -4.861         -17.09         -91.91          22.41          150.6           48.8          19.22
    0.6033              -54.85          31.52          2.483          31.57           -4.9         -17.06         -91.81           22.5          150.1          48.84          19.47
    0.6196              -54.54          31.27           2.63          31.58         -4.948         -17.03          -91.7           22.6          149.5           48.9          19.78
    0.6359              -54.16          30.96          2.809          31.58         -5.007         -16.98         -91.55          22.74          148.8          48.97          20.16
    0.6522              -53.69          30.58          3.031          31.59         -5.079         -16.92         -91.37           22.9          147.9          49.06          20.62
    0.6685              -53.11          30.11          3.307           31.6         -5.169         -16.85         -91.15           23.1          146.8          49.16           21.2
    0.6848              -52.37          29.51          3.655          31.61         -5.283         -16.77         -90.87          23.36          145.4           49.3          21.94
